<?xml version="1.0" encoding="UTF-8"?>
<svg xmlns="http://www.w3.org/2000/svg" xmlns:xlink="http://www.w3.org/1999/xlink" viewBox="0 0 1205.71 670.18">
  <defs>
    <style>
      .cls-1 {
        fill: #d9e0e7;
      }

      .cls-1, .cls-2, .cls-3, .cls-4, .cls-5, .cls-6, .cls-7, .cls-8, .cls-9, .cls-10, .cls-11, .cls-12 {
        stroke-width: 0px;
      }

      .cls-2 {
        fill: #c6def9;
      }

      .cls-3, .cls-11 {
        fill: #e5ecf3;
      }

      .cls-13 {
        isolation: isolate;
      }

      .cls-14 {
        stroke: #d5e3f0;
        stroke-width: 3px;
      }

      .cls-14, .cls-6, .cls-15, .cls-16 {
        fill: none;
      }

      .cls-14, .cls-17 {
        stroke-miterlimit: 10;
      }

      .cls-18 {
        opacity: .2;
      }

      .cls-19 {
        font-family: Poppins-SemiBold, Poppins;
        font-size: 54.46px;
        font-weight: 600;
      }

      .cls-19, .cls-4 {
        fill: #223663;
      }

      .cls-5 {
        fill: #f77c88;
      }

      .cls-15 {
        stroke-width: 2.02px;
      }

      .cls-15, .cls-16 {
        stroke-linecap: round;
        stroke-linejoin: round;
      }

      .cls-15, .cls-17 {
        stroke: #223663;
      }

      .cls-7 {
        fill: #009fe3;
      }

      .cls-8, .cls-9, .cls-17 {
        fill: #fff;
      }

      .cls-9 {
        fill-rule: evenodd;
      }

      .cls-16 {
        stroke: #fff;
        stroke-width: 3.03px;
      }

      .cls-20 {
        clip-path: url(#clippath);
      }

      .cls-17 {
        stroke-width: 5.24px;
      }

      .cls-10 {
        fill: #ff6668;
      }

      .cls-11 {
        mix-blend-mode: screen;
        opacity: .15;
      }

      .cls-12 {
        fill: #f8f4f3;
      }

      .cls-21 {
        mix-blend-mode: multiply;
      }
    </style>
    <clipPath id="clippath">
      <rect class="cls-6" x="2.17" y="115.9" width="1037.83" height="499.7"/>
    </clipPath>
  </defs>
  <g class="cls-13">
    <g id="BACKGROUND">
      <rect class="cls-7" y="115.9" width="1040" height="500"/>
      <g class="cls-18">
        <g>
          <line class="cls-14" y1="544.34" x2="749.62" y2="544.34"/>
          <line class="cls-14" y1="472.78" x2="749.62" y2="472.78"/>
          <line class="cls-14" y1="401.21" x2="749.62" y2="401.21"/>
          <line class="cls-14" y1="329.65" x2="749.62" y2="329.65"/>
          <line class="cls-14" y1="258.09" x2="749.62" y2="258.09"/>
          <line class="cls-14" y1="186.52" x2="749.62" y2="186.52"/>
        </g>
        <g>
          <line class="cls-14" x1="681.47" y1="114.96" x2="681.47" y2="615.9"/>
          <line class="cls-14" x1="613.33" y1="114.96" x2="613.33" y2="615.9"/>
          <line class="cls-14" x1="545.18" y1="114.96" x2="545.18" y2="615.9"/>
          <line class="cls-14" x1="477.03" y1="114.96" x2="477.03" y2="615.9"/>
          <line class="cls-14" x1="408.88" y1="114.96" x2="408.88" y2="615.9"/>
          <line class="cls-14" x1="340.74" y1="114.96" x2="340.74" y2="615.9"/>
          <line class="cls-14" x1="272.59" y1="114.96" x2="272.59" y2="615.9"/>
          <line class="cls-14" x1="204.44" y1="114.96" x2="204.44" y2="615.9"/>
          <line class="cls-14" x1="136.29" y1="114.96" x2="136.29" y2="615.9"/>
          <line class="cls-14" x1="68.15" y1="114.96" x2="68.15" y2="615.9"/>
        </g>
      </g>
    </g>
    <g id="PHOTOS">
      <ellipse class="cls-8" cx="209.63" cy="349.72" rx="131.11" ry="123.64"/>
    </g>
    <g id="OBJECTS">
      <g class="cls-20">
        <g>
          <circle class="cls-2" cx="870.62" cy="335.09" r="335.09"/>
          <circle class="cls-8" cx="887.05" cy="360.06" r="304.22" transform="translate(5.21 732.7) rotate(-45)"/>
          <g>
            <g>
              <path class="cls-3" d="m478.68,391.78l-14.42-12.36,17.26-20.15,14.42,12.35c5.49,4.71,6.13,12.97,1.43,18.47l-.22.26c-4.71,5.49-12.97,6.13-18.47,1.43Z"/>
              <path class="cls-10" d="m449.38,367.02c-5.6-4.8-6.25-13.23-1.45-18.83l.22-.26c4.8-5.6,13.23-6.25,18.83-1.45l15.5,13.28c-3.68,8.17-9.44,15.09-17.6,20.55l-15.5-13.28Z"/>
            </g>
            <g class="cls-21">
              <path class="cls-1" d="m478.68,391.78l-13.58-11.63c-.08.05-.14.11-.22.16l-15.5-13.28c-4.09-3.5-5.53-8.95-4.14-13.81.79,2.65,2.98,7.42,9.14,13.35,9.55,9.21,28.33,24.39,28.33,24.39,0,0,3.31,3.22,8.7,3.26-4.23,1.43-9.08.67-12.72-2.45Z"/>
            </g>
            <path class="cls-11" d="m468.53,363.15c7.69,6.59,15.05,10.62,16.44,8.99,1.39-1.62-3.71-8.29-11.4-14.88-7.69-6.59-15.05-10.62-16.44-8.99-1.39,1.62,3.71,8.29,11.4,14.88Z"/>
          </g>
          <g id="_48_eye" data-name="48 eye">
            <path class="cls-12" d="m385.29,544.26c-29.02-18.47-54.4-5.93-54.4-5.93,0,0-1.61,28.25,26.74,47.74,29.03,18.47,54.4,5.93,54.4,5.93,0,0,1.61-28.25-26.74-47.74Z"/>
            <path class="cls-2" d="m385.29,544.26c11.55,7.64,14.71,23.19,7.08,34.73-7.64,11.54-23.19,14.71-34.73,7.07-11.55-7.64-14.71-23.19-7.08-34.73,7.64-11.54,23.19-14.71,34.73-7.08Z"/>
            <path class="cls-4" d="m365.83,573.67c-4.69-3.1-5.98-9.45-2.88-14.14,3.1-4.69,9.45-5.98,14.14-2.88,4.69,3.1,5.98,9.45,2.88,14.14-3.1,4.69-9.45,5.98-14.14,2.88Z"/>
          </g>
          <path class="cls-5" d="m989.44,402.58c-.53,0-1.06-.14-1.53-.44l-16.74-10.55-16.74,10.55c-.94.59-2.13.59-3.07,0l-16.74-10.55-16.74,10.55c-.94.59-2.13.59-3.07,0l-16.74-10.55-16.74,10.55c-.94.59-2.13.59-3.07,0l-16.74-10.55-16.74,10.55c-.94.59-2.13.59-3.07,0l-16.74-10.55-16.74,10.55c-.94.59-2.13.59-3.07,0l-16.74-10.55-16.75,10.55c-.94.59-2.13.59-3.07,0l-18.28-11.52c-1.35-.85-1.75-2.63-.9-3.97.85-1.34,2.62-1.75,3.97-.9l16.75,10.55,16.75-10.55c.94-.59,2.13-.59,3.07,0l16.74,10.55,16.74-10.55c.94-.59,2.13-.59,3.07,0l16.74,10.55,16.75-10.55c.94-.59,2.13-.59,3.07,0l16.74,10.55,16.74-10.55c.94-.59,2.13-.59,3.07,0l16.74,10.55,16.74-10.55c.94-.59,2.13-.59,3.07,0l16.74,10.55,16.74-10.55c.94-.59,2.13-.59,3.07,0l18.28,11.52c1.35.85,1.75,2.63.9,3.97-.55.87-1.48,1.34-2.44,1.34Z"/>
          <path class="cls-5" d="m1062.64,523.58h-316.54c-11.36,0-20.65-9.29-20.65-20.65h0c0-11.36,9.29-20.65,20.65-20.65h316.54c11.36,0,20.65,9.29,20.65,20.65h0c0,11.36-9.29,20.65-20.65,20.65Z"/>
          <polygon class="cls-5" points="464.66 468.68 453.35 468.68 453.35 457.38 443.66 457.38 443.66 468.68 432.35 468.68 432.35 478.38 443.66 478.38 443.66 489.68 453.35 489.68 453.35 478.38 464.66 478.38 464.66 468.68"/>
          <polygon class="cls-5" points="389.95 138.69 382.6 138.69 382.6 131.5 376.3 131.5 376.3 138.69 368.95 138.69 368.95 144.85 376.3 144.85 376.3 152.03 382.6 152.03 382.6 144.85 389.95 144.85 389.95 138.69"/>
          <g>
            <g>
              <path class="cls-3" d="m67.38,238.13l-12.72,14.1-19.7-17.77,12.72-14.1c4.85-5.37,13.13-5.8,18.5-.95l.25.23c5.37,4.85,5.8,13.13.95,18.5Z"/>
              <path class="cls-10" d="m41.88,266.79c-4.94,5.48-13.39,5.91-18.86.97l-.26-.23c-5.48-4.94-5.91-13.39-.97-18.86l13.67-15.15c8.08,3.89,14.84,9.83,20.09,18.13l-13.67,15.15Z"/>
            </g>
            <g class="cls-21">
              <path class="cls-1" d="m67.38,238.13l-11.98,13.28c.05.08.1.15.15.22l-13.67,15.16c-3.61,4-9.08,5.3-13.91,3.79,2.67-.72,7.49-2.79,13.58-8.79,9.45-9.31,25.11-27.7,25.11-27.7,0,0,3.3-3.23,3.48-8.61,1.32,4.27.44,9.1-2.77,12.66Z"/>
            </g>
            <path class="cls-11" d="m38.5,247.55c6.79-7.52,11-14.77,9.41-16.21-1.59-1.43-8.38,3.5-15.16,11.02-6.79,7.52-11,14.77-9.41,16.21,1.59,1.43,8.38-3.5,15.16-11.02Z"/>
          </g>
          <polygon class="cls-5" points="49.97 399.5 42.62 399.5 42.62 392.32 36.32 392.32 36.32 399.5 28.97 399.5 28.97 405.66 36.32 405.66 36.32 412.84 42.62 412.84 42.62 405.66 49.97 405.66 49.97 399.5"/>
          <g>
            <g>
              <path class="cls-4" d="m935.66,566.37c0,6.36-5.16,11.52-11.52,11.52s-11.52-5.16-11.52-11.52,5.16-11.52,11.52-11.52,11.52,5.16,11.52,11.52Z"/>
              <g>
                <path class="cls-8" d="m924.15,560.5c1.91,0,2.14,0,2.89.04.7.03,1.08.15,1.33.25.33.13.57.29.82.54.25.25.41.49.54.82.1.25.21.63.25,1.33.04.75.04.98.04,2.89s0,2.14-.04,2.89c-.03.7-.15,1.08-.25,1.33-.13.34-.29.57-.54.82-.25.25-.49.41-.82.54-.25.1-.63.21-1.33.25-.75.03-.98.04-2.89.04s-2.14,0-2.89-.04c-.7-.03-1.08-.15-1.33-.25-.33-.13-.57-.29-.82-.54-.25-.25-.41-.49-.54-.82-.1-.25-.21-.63-.25-1.33-.03-.75-.04-.98-.04-2.89s0-2.14.04-2.89c.03-.7.15-1.08.25-1.33.13-.33.29-.57.54-.82.25-.25.49-.4.82-.54.25-.1.63-.21,1.33-.25.75-.03.98-.04,2.89-.04m0-1.29c-1.94,0-2.19,0-2.95.04-.76.04-1.28.16-1.74.33-.47.18-.87.43-1.27.83-.4.4-.64.8-.82,1.27-.18.45-.3.97-.33,1.74-.04.76-.04,1.01-.04,2.95s0,2.19.04,2.95c.03.76.16,1.28.33,1.74.18.47.43.87.82,1.27.4.4.8.64,1.27.83.46.18.97.3,1.74.33.76.03,1.01.04,2.95.04s2.19,0,2.95-.04c.76-.04,1.28-.16,1.74-.33.47-.18.87-.43,1.27-.83.4-.4.64-.8.83-1.27.18-.46.3-.97.33-1.74.04-.76.04-1.01.04-2.95s0-2.19-.04-2.95c-.03-.76-.16-1.28-.33-1.74-.18-.47-.43-.87-.83-1.27-.4-.4-.8-.64-1.27-.83-.46-.18-.97-.3-1.74-.33-.76-.03-1.01-.04-2.95-.04"/>
                <path class="cls-8" d="m924.15,562.69c-2.03,0-3.67,1.64-3.67,3.67s1.64,3.67,3.67,3.67,3.67-1.64,3.67-3.67-1.64-3.67-3.67-3.67m0,6.06c-1.32,0-2.38-1.07-2.38-2.39s1.07-2.38,2.38-2.38,2.38,1.07,2.38,2.38-1.07,2.39-2.38,2.39"/>
                <path class="cls-8" d="m928.82,562.55c0,.47-.38.86-.86.86s-.86-.38-.86-.86.38-.86.86-.86.86.38.86.86"/>
              </g>
            </g>
            <g>
              <path class="cls-4" d="m964.97,566.37c0,6.36-5.16,11.52-11.51,11.52s-11.52-5.16-11.52-11.52,5.16-11.52,11.52-11.52,11.51,5.16,11.51,11.52Z"/>
              <path class="cls-8" d="m953.69,573.26v-6.29h2.11l.32-2.45h-2.43v-1.57c0-.71.2-1.19,1.21-1.19h1.3v-2.19c-.22-.03-1-.1-1.89-.1-1.87,0-3.15,1.14-3.15,3.24v1.81h-2.12v2.45h2.12v6.29h2.53Z"/>
            </g>
            <g>
              <path class="cls-4" d="m994.29,566.37c0,6.36-5.16,11.52-11.52,11.52s-11.52-5.16-11.52-11.52,5.16-11.52,11.52-11.52,11.52,5.16,11.52,11.52Z"/>
              <g>
                <path class="cls-9" d="m987.89,561.08c-1.3-1.31-3.04-2.02-4.88-2.02-3.8,0-6.9,3.1-6.9,6.9,0,1.22.32,2.41.92,3.45l-.98,3.58,3.66-.96c1.01.55,2.14.84,3.3.84h0c3.81,0,6.9-3.1,6.9-6.9,0-1.84-.72-3.58-2.02-4.88m-4.88,10.62h0c-1.03,0-2.04-.28-2.92-.8l-.21-.12-2.17.57.58-2.12-.14-.22c-.57-.91-.88-1.97-.88-3.05,0-3.16,2.58-5.74,5.74-5.74,1.53,0,2.97.6,4.06,1.68,1.08,1.08,1.68,2.53,1.68,4.06,0,3.16-2.58,5.74-5.74,5.74"/>
                <path class="cls-8" d="m986.31,568.16l.04-.14c.04-.15-.03-.32-.17-.4l-1.41-.75c-.14-.07-.31-.05-.41.07l-.56.61c-.09.1-.23.13-.35.08-.52-.21-.96-.49-1.29-.82-.33-.33-.6-.77-.82-1.29-.05-.12-.01-.26.08-.35l.61-.56c.11-.11.14-.28.07-.41l-.75-1.41c-.08-.14-.24-.21-.4-.17l-.14.04c-.44.13-.8.42-1.03.81-.21.36-.28.78-.2,1.19v.05c.15.75.45,1.47.88,2.11.21.31.44.59.7.86l.07.07.07.06c.26.26.55.5.86.71h0c.64.43,1.36.72,2.11.87h.04c.41.09.83.02,1.19-.19.39-.22.68-.59.81-1.03Z"/>
              </g>
            </g>
          </g>
          <path class="cls-4" d="m525.87,569.79v51.63h49.3c0-.27.02-.53.02-.8,0-27.58-21.95-50.01-49.32-50.83Z"/>
          <g>
            <path class="cls-8" d="m10.88,560.08c-1.05,0-1.91-.86-1.91-1.91s.85-1.91,1.91-1.91,1.91.86,1.91,1.91-.85,1.91-1.91,1.91Z"/>
            <path class="cls-8" d="m19.77,568.97c-1.05,0-1.91-.86-1.91-1.91s.86-1.91,1.91-1.91,1.91.86,1.91,1.91-.85,1.91-1.91,1.91Z"/>
            <path class="cls-8" d="m28.67,560.08c-1.05,0-1.91-.86-1.91-1.91s.85-1.91,1.91-1.91,1.91.86,1.91,1.91-.86,1.91-1.91,1.91Z"/>
            <path class="cls-8" d="m37.56,568.97c-1.05,0-1.91-.86-1.91-1.91s.86-1.91,1.91-1.91,1.91.86,1.91,1.91-.85,1.91-1.91,1.91Z"/>
            <path class="cls-8" d="m46.46,560.08c-1.05,0-1.91-.86-1.91-1.91s.85-1.91,1.91-1.91,1.91.86,1.91,1.91-.85,1.91-1.91,1.91Z"/>
            <path class="cls-8" d="m55.35,568.97c-1.05,0-1.91-.86-1.91-1.91s.86-1.91,1.91-1.91,1.91.86,1.91,1.91-.86,1.91-1.91,1.91Z"/>
            <path class="cls-8" d="m64.25,560.08c-1.05,0-1.91-.86-1.91-1.91s.86-1.91,1.91-1.91,1.91.86,1.91,1.91-.85,1.91-1.91,1.91Z"/>
            <path class="cls-8" d="m73.15,568.97c-1.05,0-1.91-.86-1.91-1.91s.86-1.91,1.91-1.91,1.91.86,1.91,1.91-.85,1.91-1.91,1.91Z"/>
            <path class="cls-8" d="m10.88,577.87c-1.05,0-1.91-.86-1.91-1.91s.85-1.91,1.91-1.91,1.91.86,1.91,1.91-.85,1.91-1.91,1.91Z"/>
            <path class="cls-8" d="m19.77,586.76c-1.05,0-1.91-.86-1.91-1.91s.86-1.91,1.91-1.91,1.91.86,1.91,1.91-.85,1.91-1.91,1.91Z"/>
            <path class="cls-8" d="m28.67,577.87c-1.05,0-1.91-.86-1.91-1.91s.85-1.91,1.91-1.91,1.91.86,1.91,1.91-.86,1.91-1.91,1.91Z"/>
            <path class="cls-8" d="m37.56,586.76c-1.05,0-1.91-.86-1.91-1.91s.86-1.91,1.91-1.91,1.91.86,1.91,1.91-.85,1.91-1.91,1.91Z"/>
            <path class="cls-8" d="m46.46,577.87c-1.05,0-1.91-.86-1.91-1.91s.85-1.91,1.91-1.91,1.91.86,1.91,1.91-.85,1.91-1.91,1.91Z"/>
            <path class="cls-8" d="m55.35,586.76c-1.05,0-1.91-.86-1.91-1.91s.86-1.91,1.91-1.91,1.91.86,1.91,1.91-.86,1.91-1.91,1.91Z"/>
            <path class="cls-8" d="m64.25,577.87c-1.05,0-1.91-.86-1.91-1.91s.86-1.91,1.91-1.91,1.91.86,1.91,1.91-.85,1.91-1.91,1.91Z"/>
            <path class="cls-8" d="m73.15,586.76c-1.05,0-1.91-.86-1.91-1.91s.86-1.91,1.91-1.91,1.91.86,1.91,1.91-.85,1.91-1.91,1.91Z"/>
            <path class="cls-8" d="m10.88,595.66c-1.05,0-1.91-.85-1.91-1.91s.85-1.91,1.91-1.91,1.91.86,1.91,1.91-.85,1.91-1.91,1.91Z"/>
            <path class="cls-8" d="m19.77,604.55c-1.05,0-1.91-.86-1.91-1.91s.86-1.91,1.91-1.91,1.91.85,1.91,1.91-.85,1.91-1.91,1.91Z"/>
            <path class="cls-8" d="m28.67,595.66c-1.05,0-1.91-.85-1.91-1.91s.85-1.91,1.91-1.91,1.91.86,1.91,1.91-.86,1.91-1.91,1.91Z"/>
            <path class="cls-8" d="m37.56,604.55c-1.05,0-1.91-.86-1.91-1.91s.86-1.91,1.91-1.91,1.91.85,1.91,1.91-.85,1.91-1.91,1.91Z"/>
            <path class="cls-8" d="m46.46,595.66c-1.05,0-1.91-.85-1.91-1.91s.85-1.91,1.91-1.91,1.91.86,1.91,1.91-.85,1.91-1.91,1.91Z"/>
            <path class="cls-8" d="m55.35,604.55c-1.05,0-1.91-.86-1.91-1.91s.86-1.91,1.91-1.91,1.91.85,1.91,1.91-.86,1.91-1.91,1.91Z"/>
            <path class="cls-8" d="m64.25,595.66c-1.05,0-1.91-.85-1.91-1.91s.86-1.91,1.91-1.91,1.91.86,1.91,1.91-.85,1.91-1.91,1.91Z"/>
            <path class="cls-8" d="m73.15,604.55c-1.05,0-1.91-.86-1.91-1.91s.86-1.91,1.91-1.91,1.91.85,1.91,1.91-.85,1.91-1.91,1.91Z"/>
            <path class="cls-8" d="m10.88,613.45c-1.05,0-1.91-.86-1.91-1.91s.85-1.91,1.91-1.91,1.91.85,1.91,1.91-.85,1.91-1.91,1.91Z"/>
            <path class="cls-8" d="m28.67,613.45c-1.05,0-1.91-.86-1.91-1.91s.85-1.91,1.91-1.91,1.91.85,1.91,1.91-.86,1.91-1.91,1.91Z"/>
            <path class="cls-8" d="m46.46,613.45c-1.05,0-1.91-.86-1.91-1.91s.85-1.91,1.91-1.91,1.91.85,1.91,1.91-.85,1.91-1.91,1.91Z"/>
            <path class="cls-8" d="m64.25,613.45c-1.05,0-1.91-.86-1.91-1.91s.86-1.91,1.91-1.91,1.91.85,1.91,1.91-.85,1.91-1.91,1.91Z"/>
          </g>
          <path class="cls-8" d="m574.6,569.79v51.63h49.3c0-.27.02-.53.02-.8,0-27.58-21.95-50.01-49.32-50.83Z"/>
          <g>
            <rect class="cls-2" x="114.49" y="546.86" width="53.83" height="53.83"/>
            <rect class="cls-5" x="87.58" y="519.95" width="53.83" height="53.83"/>
            <rect class="cls-4" x="114.49" y="546.86" width="26.91" height="26.91"/>
          </g>
          <path class="cls-4" d="m127.95,180.46v-65.08h-62.14c0,.34-.03.67-.03,1.01,0,34.76,27.66,63.04,62.17,64.07Z"/>
          <path class="cls-8" d="m66.53,180.46v-65.08H4.39c0,.34-.03.67-.03,1.01,0,34.76,27.66,63.04,62.17,64.07Z"/>
          <g>
            <line class="cls-16" x1="232.2" y1="94.86" x2="220.9" y2="114.26"/>
            <line class="cls-16" x1="237.03" y1="97.21" x2="225.73" y2="116.62"/>
            <line class="cls-16" x1="240.23" y1="102.38" x2="231.81" y2="116.83"/>
            <line class="cls-16" x1="296.09" y1="132.06" x2="284.79" y2="151.47"/>
            <line class="cls-16" x1="291.66" y1="129.03" x2="280.36" y2="148.43"/>
            <line class="cls-16" x1="269.27" y1="115.99" x2="257.97" y2="135.39"/>
            <line class="cls-16" x1="264.18" y1="113.48" x2="252.88" y2="132.88"/>
            <line class="cls-16" x1="259.49" y1="110.29" x2="248.19" y2="129.69"/>
            <line class="cls-16" x1="253.93" y1="108.58" x2="244.14" y2="125.39"/>
            <line class="cls-16" x1="273.51" y1="119.98" x2="263.72" y2="136.79"/>
            <line class="cls-16" x1="285.59" y1="128.8" x2="277.17" y2="143.25"/>
            <path class="cls-2" d="m232.16,91.17l-1.19,2.03c-.36.62-.15,1.39.44,1.79,6.33,4.28,7.18,10.7,8.16,18.07,1.05,7.93,2.25,16.92,11.69,22.42,9.45,5.5,17.85,2.1,25.27-.89,6.92-2.8,12.94-5.23,19.83-1.78.59.3,1.31.11,1.64-.46l1.29-2.21c.35-.6.14-1.38-.47-1.7-9-4.63-17.04-1.38-24.16,1.5-7.27,2.94-13.55,5.48-20.87,1.21-7.32-4.27-8.21-10.98-9.25-18.75-1.01-7.57-2.14-16.11-10.47-21.66-.65-.43-1.52-.25-1.92.42Z"/>
            <path class="cls-5" d="m276.54,134.59c-.98.39-1.97.79-2.98,1.18,1.02,6.72,2.86,13.76,10.1,18.54.61.4,1.43.22,1.79-.41l1.26-2.16c.33-.56.18-1.29-.36-1.65-5.87-3.91-7.1-9.62-8.02-16.22-.6.24-1.2.48-1.81.72Z"/>
            <path class="cls-5" d="m243,115.06c7.27-2.94,13.55-5.48,20.87-1.21,6.23,3.63,7.8,9.03,8.77,15.35.66.38.95.54,1.61.91,1.11-.45,2.24-.91,3.39-1.35-1.07-7.06-3.04-14.47-11.25-19.25-9.45-5.5-17.85-2.1-25.27.89-6.89,2.79-12.9,5.21-19.74,1.82-.64-.32-1.42-.12-1.77.5l-1.19,2.04c-.39.67-.12,1.52.58,1.87,8.93,4.51,16.92,1.28,24-1.58Z"/>
          </g>
          <g>
            <path class="cls-8" d="m392.39,220.84c.04.15.07.3.11.45,1.3,5.82-.84,12.46-3.25,17.72-3.26,7.12-7.05,13.97-10.61,20.94-.94,1.84-2.53,2.39-4.54,1.74-2.02-.65-4.02-1.35-6.02-2.05-7.5-2.65-15.18-4.83-22.16-8.78-5.83-3.29-9.91-7.96-11.06-14.71-1.18-6.9.74-12.84,6.53-16.97,5.39-3.85,11.24-4.01,17.05-.82,1.37.76,1.44.11,1.76-.87,1.99-5.98,6.1-9.77,12.27-10.89,9.46-1.71,17.68,5.27,19.91,14.25Z"/>
            <path class="cls-5" d="m386.61,225.24c.03.11.06.23.08.34,1,4.44-.64,9.52-2.48,13.54-2.49,5.44-5.39,10.67-8.11,16-.72,1.4-1.93,1.82-3.47,1.33-1.54-.5-3.07-1.03-4.6-1.57-5.73-2.02-11.6-3.69-16.94-6.71-4.45-2.51-7.57-6.08-8.45-11.24-.9-5.27.56-9.81,4.99-12.97,4.12-2.94,8.59-3.07,13.03-.62,1.05.58,1.1.08,1.35-.67,1.52-4.57,4.66-7.47,9.38-8.32,7.23-1.31,13.51,4.03,15.21,10.89Z"/>
            <polyline class="cls-15" points="377 235.56 368.08 239.12 363.15 231.36 365.46 246.25 354.55 231.15 355.02 248.29 348.63 238.38 351.51 258.52 339.56 236.23 341.29 250.45 333.95 253.38"/>
          </g>
          <g>
            <rect class="cls-2" x="471.74" y="157.09" width="53.83" height="53.83" transform="translate(314.66 682.65) rotate(-90)"/>
            <rect class="cls-5" x="444.83" y="184" width="53.83" height="53.83" transform="translate(260.83 682.65) rotate(-90)"/>
            <rect class="cls-4" x="471.74" y="184" width="26.91" height="26.91"/>
          </g>
        </g>
      </g>
      <path class="cls-17" d="m437.26,416.18c0,24.23-19.64,43.87-43.87,43.87s-43.87-19.64-43.87-43.87,19.64-43.87,43.87-43.87,43.87,19.64,43.87,43.87Z"/>
    </g>
    <g id="TEXTS">
      <text class="cls-19" transform="translate(635.33 260.85)"><tspan x="0" y="0">YOUR MEDICAL</tspan><tspan x="0" y="57.24">REPORTS AT </tspan><tspan x="0" y="114.48">ONE PLACE</tspan></text>
      <image width="404" height="438" transform="translate(132.29 258.01) scale(.39 .4)" xlink:href="Vector.png"/>
    </g>
  </g>
</svg>